<svg width="33" height="29" viewBox="0 0 33 29" fill="none" xmlns="http://www.w3.org/2000/svg">
<path d="M28.7887 2.32961C25.2305 -0.727593 19.7332 -0.268383 16.3289 3.27319C12.9247 -0.268383 7.42737 -0.733884 3.8692 2.32961C-0.760108 6.31152 -0.0829481 12.8034 3.21667 16.2443L14.0143 27.4855C14.6299 28.1271 15.4548 28.4857 16.3289 28.4857C17.2092 28.4857 18.028 28.1334 18.6436 27.4918L29.4412 16.2506C32.7347 12.8097 33.4241 6.31781 28.7887 2.32961ZM27.3359 14.1244L16.5382 25.3656C16.3905 25.5165 16.2674 25.5165 16.1196 25.3656L5.32201 14.1244C3.07508 11.7843 2.61953 7.35575 5.7714 4.64453C8.16609 2.58752 11.8597 2.89576 14.1743 5.30504L16.3289 7.55076L18.4835 5.30504C20.8105 2.88318 24.5041 2.58752 26.8865 4.63824C30.0322 7.34946 29.5643 11.8032 27.3359 14.1244Z" fill="white"/>
</svg>
